<svg viewBox="0 0 253 424" xmlns="http://www.w3.org/2000/svg" fill-rule="evenodd" clip-rule="evenodd" stroke-linecap="round" stroke-linejoin="round" stroke-miterlimit="1.5"><path d="M382.495 498.164l81.921 81.92-81.921 81.921-81.921-81.921 81.921-81.92z" fill="none" stroke="#00c9b7" stroke-width="2.13" transform="matrix(-1.52094 -.0003 -.00025 1.28333 707.99 -637.696)"/><path d="M382.495 498.164l81.921 81.92-81.921 81.921-81.921-81.921 81.921-81.92z" fill="none" stroke="#00c9b7" stroke-width="2.13" transform="matrix(-1.52094 .00032 .00027 1.28333 707.69 -532.798)"/><path d="M126.12 316.895l-.03 105.132 124.6-105.132V214.398L1.5 211.764V106.632h124.59V1.5" fill="none" stroke="#00c9b7" stroke-width="3"/><path d="M382.495 498.164l81.921 81.92-81.921 81.921-81.921-81.921 81.921-81.92z" fill="none" stroke="#00c9b7" stroke-width="2.13" transform="matrix(-1.52094 .00032 .00027 1.28333 707.69 -427.667)"/></svg>